<?xml version="1.0" encoding="UTF-8"?>
<svg id="Layer_1" data-name="Layer 1" xmlns="http://www.w3.org/2000/svg" xmlns:xlink="http://www.w3.org/1999/xlink" viewBox="0 0 960 960">
  <defs>
    <style>
      .cls-1 {
        fill: url(#linear-gradient-12);
      }

      .cls-1, .cls-2, .cls-3, .cls-4, .cls-5, .cls-6, .cls-7, .cls-8, .cls-9, .cls-10, .cls-11, .cls-12, .cls-13, .cls-14, .cls-15, .cls-16 {
        stroke-width: 0px;
      }

      .cls-2 {
        fill: url(#linear-gradient);
      }

      .cls-3 {
        fill: url(#linear-gradient-6);
      }

      .cls-5 {
        fill: url(#linear-gradient-11);
      }

      .cls-6 {
        fill: url(#linear-gradient-5);
      }

      .cls-7 {
        fill: url(#linear-gradient-13);
      }

      .cls-8 {
        fill: url(#linear-gradient-14);
      }

      .cls-9 {
        fill: url(#linear-gradient-2);
      }

      .cls-10 {
        fill: url(#linear-gradient-7);
      }

      .cls-11 {
        fill: url(#linear-gradient-3);
      }

      .cls-12 {
        fill: url(#linear-gradient-9);
      }

      .cls-13 {
        fill: url(#linear-gradient-8);
      }

      .cls-14 {
        fill: url(#linear-gradient-10);
      }

      .cls-15 {
        fill: url(#linear-gradient-4);
      }

      .cls-16 {
        fill: #f04923;
      }
    </style>
    <linearGradient id="linear-gradient" x1="34.72" y1="955.21" x2="34.72" y2="951.45" gradientTransform="translate(93.24 83306.68) scale(8.87 -86.66)" gradientUnits="userSpaceOnUse">
      <stop offset="0" stop-color="#f6871f"/>
      <stop offset=".24" stop-color="#f57e20"/>
      <stop offset=".63" stop-color="#f36621"/>
      <stop offset="1" stop-color="#f04923"/>
    </linearGradient>
    <linearGradient id="linear-gradient-2" x1="32.72" y1="955.3" x2="32.72" y2="951.62" gradientTransform="translate(82.68 85027.86) scale(8.77 -88.45)" xlink:href="#linear-gradient"/>
    <linearGradient id="linear-gradient-3" x1="28.99" y1="955.25" x2="28.99" y2="951.53" gradientTransform="translate(62.06 84167.13) scale(8.47 -87.56)" xlink:href="#linear-gradient"/>
    <linearGradient id="linear-gradient-4" x1="31.06" y1="955.37" x2="31.06" y2="951.74" gradientTransform="translate(72.42 86271) scale(8.57 -89.75)" xlink:href="#linear-gradient"/>
    <linearGradient id="linear-gradient-5" x1="20.93" y1="952.81" x2="20.93" y2="947.18" gradientTransform="translate(21.82 55669.85) scale(7.87 -57.87)" xlink:href="#linear-gradient"/>
    <linearGradient id="linear-gradient-6" x1="35.9" y1="955.72" x2="35.9" y2="952.37" gradientTransform="translate(103.5 93347.36) scale(9.16 -97.12)" xlink:href="#linear-gradient"/>
    <linearGradient id="linear-gradient-7" x1="23.44" y1="952.64" x2="23.44" y2="946.87" gradientTransform="translate(31.98 54331.48) scale(7.87 -56.48)" xlink:href="#linear-gradient"/>
    <linearGradient id="linear-gradient-8" x1="25.37" y1="954.31" x2="25.37" y2="949.86" gradientTransform="translate(41.94 70301.29) scale(8.07 -73.11)" xlink:href="#linear-gradient"/>
    <linearGradient id="linear-gradient-9" x1="26.86" y1="955" x2="26.86" y2="951.08" gradientTransform="translate(51.6 79870.74) scale(8.37 -83.08)" xlink:href="#linear-gradient"/>
    <linearGradient id="linear-gradient-10" x1="35.58" y1="955.97" x2="35.58" y2="952.82" gradientTransform="translate(113.16 99180.58) scale(9.86 -103.2)" xlink:href="#linear-gradient"/>
    <linearGradient id="linear-gradient-11" x1="17.21" y1="945.71" x2="17.21" y2="934.88" gradientTransform="translate(-5.08 28976.52) scale(6.08 -30.08)" xlink:href="#linear-gradient"/>
    <linearGradient id="linear-gradient-12" x1="16.55" y1="951.09" x2="16.55" y2="944.21" gradientTransform="translate(2.2 45528.36) scale(7.57 -47.32)" xlink:href="#linear-gradient"/>
    <linearGradient id="linear-gradient-13" x1="18.86" y1="952.55" x2="18.86" y2="946.73" gradientTransform="translate(11.96 53851.95) scale(7.67 -55.98)" xlink:href="#linear-gradient"/>
    <linearGradient id="linear-gradient-14" x1="5.33" y1="956.24" x2="5.33" y2="953.3" gradientTransform="translate(12.65 106256.94) scale(121.72 -110.57)" gradientUnits="userSpaceOnUse">
      <stop offset="0" stop-color="#f7941e"/>
      <stop offset="0" stop-color="#f68b1f"/>
      <stop offset="0" stop-color="#f6871f"/>
      <stop offset=".24" stop-color="#f57e20"/>
      <stop offset=".63" stop-color="#f36621"/>
      <stop offset="1" stop-color="#f04923"/>
    </linearGradient>
  </defs>
  <g>
    <path class="cls-2" d="M414.06,766.9l-4.4-160.29c0-4.98-4.1-8.79-8.79-8.79-4.98,0-8.79,3.81-8.79,8.79l-4.1,160.29,4.1,77.07c0,4.98,4.1,8.79,8.79,8.79,4.98,0,8.79-3.81,8.79-8.79h0l4.4-77.07h0Z"/>
    <path class="cls-9" d="M382.42,766.9l-4.98-166.44c0-4.69-3.81-8.2-8.2-8.2s-8.2,3.52-8.2,8.2l-4.4,166.15,4.4,77.65c0,4.69,3.81,8.2,8.2,8.2s8.2-3.52,8.2-8.2h0l4.98-77.36h0Z"/>
    <path class="cls-11" d="M314.14,601.64c-.29-3.81-3.22-7.03-7.03-7.03s-6.74,2.93-7.03,7.03l-4.98,164.97,4.98,78.82c0,3.81,3.22,6.74,7.03,6.74s6.74-2.93,7.03-7.03l5.86-78.82-5.86-164.68h0Z"/>
    <path class="cls-15" d="M345.79,596.07c0-4.1-3.52-7.62-7.62-7.62s-7.62,3.22-7.62,7.62l-4.69,170.54,4.69,78.24c0,4.1,3.52,7.62,7.62,7.62s7.33-3.22,7.62-7.62l5.27-78.24-5.27-170.54h0Z"/>
    <path class="cls-6" d="M186.09,850.42c2.34,0,4.1-1.76,4.4-4.4l7.62-79.41-7.62-82.05c-.29-2.34-2.05-4.4-4.4-4.4s-4.1,1.76-4.4,4.4l-6.74,82.05,6.74,79.41c0,2.64,2.05,4.4,4.4,4.4h0Z"/>
    <path class="cls-3" d="M446,766.9l-4.1-190.47c0-3.22-1.76-6.15-4.4-7.91-1.47-.88-3.22-1.76-5.27-1.76-1.76,0-3.52.59-5.27,1.47-2.64,1.76-4.4,4.69-4.4,7.91v1.76l-3.52,188.71,3.52,76.48v.29c0,2.05.88,4.1,2.34,5.57,1.76,2.05,4.4,3.52,7.33,3.52,2.64,0,4.98-1.17,6.74-2.64,1.76-1.76,2.93-4.1,2.93-6.74l.29-7.62,3.81-68.57h0Z"/>
    <path class="cls-10" d="M220.96,690.42c-.29-2.93-2.34-4.98-4.98-4.98s-4.98,2.05-4.98,4.98l-6.15,76.19,6.15,80c.29,2.93,2.34,4.98,4.98,4.98s4.98-2.05,4.98-4.98l7.03-80-7.03-76.19h0Z"/>
    <path class="cls-13" d="M246.16,637.09c-2.93,0-5.57,2.34-5.57,5.57l-5.86,123.95,5.86,80c.29,3.22,2.64,5.57,5.57,5.57s5.57-2.34,5.57-5.57h0l6.74-80-6.74-123.95c0-2.93-2.64-5.57-5.57-5.57h0Z"/>
    <path class="cls-12" d="M282.49,846.61h0l6.15-79.7-6.15-152.37c-.29-3.52-2.93-6.15-6.45-6.15s-6.15,2.64-6.45,6.15l-5.57,152.37,5.57,79.7c0,3.52,2.93,6.15,6.45,6.15,3.52.29,6.15-2.64,6.45-6.15h0Z"/>
    <path class="cls-14" d="M469.15,550.36c-1.47-.88-3.22-1.47-5.27-1.47-2.34,0-4.69.88-6.45,2.34-2.34,1.76-3.81,4.69-3.81,7.91v1.17l-4.1,206.88,2.05,38.09,2.05,37.21c0,5.57,4.69,9.96,10.26,9.96s9.96-4.69,10.26-10.26h0l4.4-75.31-4.4-207.76c-.29-3.81-2.05-7.03-4.98-8.79h0Z"/>
    <path class="cls-5" d="M99.06,810.56c1.47,0,2.64-1.17,2.93-2.93l6.45-41.02-6.45-41.61c-.29-1.76-1.47-2.93-2.93-2.93s-2.93,1.17-2.93,2.93l-5.57,41.61,5.57,41.02c0,1.76,1.47,2.93,2.93,2.93h0Z"/>
    <path class="cls-1" d="M126.9,835.47c1.47,0,2.93-1.17,3.22-2.93l8.5-65.93-8.5-67.4c-.29-1.76-1.47-2.93-3.22-2.93-1.47,0-2.93,1.17-3.22,2.93l-7.33,67.4,7.33,65.93c.29,1.76,1.47,2.93,3.22,2.93h0Z"/>
    <path class="cls-7" d="M156.2,847.49c2.05,0,3.52-1.47,3.81-3.81l7.91-77.07-7.91-80c-.29-2.05-1.76-3.81-3.81-3.81s-3.52,1.47-3.81,3.81l-7.03,80,7.03,77.07c.29,2.05,1.76,3.81,3.81,3.81h0Z"/>
    <path class="cls-8" d="M748.4,668.45c-12.6,0-24.61,2.64-35.75,7.03-7.33-82.93-77.07-148.27-162.04-148.27-20.8,0-41.02,4.1-58.9,11.13-7.03,2.64-8.79,5.57-8.79,10.84v292.73c0,5.57,4.4,9.96,9.96,10.55h255.81c50.99,0,92.3-40.73,92.3-91.72-.29-50.99-41.61-92.3-92.6-92.3h0Z"/>
    <path class="cls-16" d="M164.11,908.14c-10.84-2.64-13.77-3.81-13.77-8.2,0-2.93,2.34-6.15,9.67-6.15,6.15,0,11.13,2.64,15.53,7.03l9.96-9.67c-6.45-6.74-14.36-10.84-24.91-10.84-13.48,0-24.32,7.62-24.32,19.93,0,13.48,8.79,17.58,21.39,20.22,12.89,2.93,15.24,4.98,15.24,9.38,0,5.27-3.81,7.33-12.01,7.33-6.45,0-12.6-2.34-17.58-7.91l-9.96,8.79c5.27,7.62,15.24,12.31,26.37,12.31,18.75,0,26.67-8.79,26.67-21.68.59-14.36-11.43-18.17-22.27-20.51h0ZM227.11,880.6c-18.75,0-29.6,14.36-29.6,35.16s11.13,35.16,29.6,35.16,29.6-14.36,29.6-35.16-11.13-35.16-29.6-35.16h0ZM227.11,937.15c-11.13,0-15.53-9.38-15.53-21.68s4.69-21.68,15.53-21.68,15.53,9.38,15.53,21.68-4.69,21.68-15.53,21.68h0ZM311.8,919.86c0,10.84-5.27,17.58-14.07,17.58s-14.07-7.03-14.07-17.87v-38.09h-13.77v38.39c0,19.93,11.13,31.06,27.54,31.06,17.29,0,27.54-11.43,27.54-31.06v-38.09h-13.77v38.09h.59ZM384.17,910.49c0,3.81.29,12.31.29,14.94-.88-1.76-3.22-5.27-4.69-7.62l-24.32-36.04h-13.19v68.27h13.48v-30.18c0-3.81-.29-12.31-.29-14.94.88,1.76,3.22,5.27,4.69,7.62l24.91,37.21h12.31v-68.27h-13.48v29.01h.29ZM436.62,881.48h-21.39v68.27h20.22c17.58,0,34.87-10.26,34.87-33.99,0-25.2-14.36-34.28-33.7-34.28h0ZM435.45,936.56h-6.74v-41.61h7.33c14.36,0,20.51,7.03,20.51,20.8,0,12.31-6.74,20.8-21.1,20.8h0ZM512.52,894.08c6.15,0,9.96,2.64,12.6,7.33l12.6-5.86c-4.4-8.79-12.01-15.24-24.91-15.24-17.87,0-30.18,14.36-30.18,35.16s12.01,35.16,29.89,35.16c12.31,0,20.51-5.86,25.2-15.53l-11.43-6.74c-3.52,6.15-7.33,8.79-13.48,8.79-10.26,0-16.12-9.38-16.12-21.68s5.86-21.39,15.82-21.39h0ZM563.21,881.48h-13.77v68.27h41.02v-13.48h-27.25v-54.8h0ZM626.51,880.6c-18.75,0-29.6,14.36-29.6,35.16s11.13,35.16,29.6,35.16,29.6-14.36,29.6-35.16-10.84-35.16-29.6-35.16h0ZM626.51,937.15c-11.13,0-15.53-9.38-15.53-21.68s4.69-21.68,15.53-21.68,15.53,9.38,15.53,21.68-4.4,21.68-15.53,21.68h0ZM711.19,919.86c0,10.84-5.27,17.58-14.07,17.58s-14.07-7.03-14.07-17.87v-38.09h-13.77v38.39c0,19.93,11.13,31.06,27.54,31.06,17.29,0,27.54-11.43,27.54-31.06v-38.09h-13.77v38.09h.59ZM763.35,881.48h-21.39v68.27h20.22c17.58,0,34.87-10.26,34.87-33.99,0-25.2-14.36-34.28-33.7-34.28h0ZM762.18,936.56h-6.45v-41.61h7.33c14.36,0,20.22,7.03,20.22,20.8,0,12.31-6.74,20.8-21.1,20.8h0Z"/>
  </g>
</svg>